<svg width="48" height="48" viewBox="0 0 48 48" fill="none" xmlns="http://www.w3.org/2000/svg">
<path d="M24 42C20.4399 42 16.9598 40.9443 13.9997 38.9665C11.0397 36.9886 8.73255 34.1774 7.37018 30.8883C6.0078 27.5992 5.65134 23.98 6.34587 20.4884C7.04041 16.9967 8.75474 13.7894 11.2721 11.2721C13.7894 8.75473 16.9967 7.0404 20.4884 6.34587C23.98 5.65133 27.5992 6.00779 30.8883 7.37017C34.1774 8.73255 36.9886 11.0397 38.9665 13.9997C40.9443 16.9598 42 20.4399 42 24C42 28.7739 40.1036 33.3523 36.7279 36.7279C33.3523 40.1036 28.7739 42 24 42Z" fill="#FF5C39"/>
<path d="M17.98 20.08C19.0845 20.08 19.98 19.1846 19.98 18.08C19.98 16.9754 19.0845 16.08 17.98 16.08C16.8754 16.08 15.98 16.9754 15.98 18.08C15.98 19.1846 16.8754 20.08 17.98 20.08Z" fill="#4C4C4C"/>
<path d="M29.98 20.08C31.0845 20.08 31.98 19.1846 31.98 18.08C31.98 16.9754 31.0845 16.08 29.98 16.08C28.8754 16.08 27.98 16.9754 27.98 18.08C27.98 19.1846 28.8754 20.08 29.98 20.08Z" fill="#4C4C4C"/>
<path d="M20.58 26.12C20.6147 26.4506 20.7711 26.7565 21.0187 26.9783C21.2664 27.2 21.5876 27.3218 21.92 27.32H22L26.44 26.88L24.96 20C24.8831 19.6555 24.6753 19.3544 24.3804 19.1603C24.0856 18.9663 23.7268 18.8944 23.38 18.96C23.2089 18.9934 23.0462 19.0604 22.9011 19.1571C22.7561 19.2538 22.6316 19.3782 22.5349 19.5233C22.4382 19.6683 22.3712 19.8311 22.3378 20.0021C22.3043 20.1732 22.3051 20.3492 22.34 20.52L23.22 24.52L21.76 24.66C21.4113 24.7003 21.0923 24.8758 20.8716 25.1488C20.651 25.4219 20.5462 25.7706 20.58 26.12Z" fill="#4C4C4C"/>
<path d="M24 29.26C26.5944 29.2628 29.093 30.2408 31 32C31.1829 32.1187 31.3377 32.2759 31.4536 32.4605C31.5696 32.6452 31.6439 32.8529 31.6714 33.0692C31.6988 33.2855 31.6788 33.5052 31.6127 33.7129C31.5466 33.9207 31.436 34.1116 31.2886 34.2722C31.1412 34.4329 30.9606 34.5595 30.7592 34.6432C30.5579 34.7269 30.3408 34.7658 30.1229 34.757C29.905 34.7482 29.6917 34.692 29.4978 34.5924C29.3039 34.4927 29.134 34.352 29 34.18C27.5811 33.044 25.8176 32.425 24 32.425C22.1823 32.425 20.4189 33.044 19 34.18C18.866 34.352 18.6961 34.4927 18.5022 34.5924C18.3082 34.692 18.0949 34.7482 17.8771 34.757C17.6592 34.7658 17.442 34.7269 17.2407 34.6432C17.0394 34.5595 16.8587 34.4329 16.7113 34.2722C16.5639 34.1116 16.4533 33.9207 16.3872 33.7129C16.3211 33.5052 16.3011 33.2855 16.3286 33.0692C16.3561 32.8529 16.4304 32.6452 16.5463 32.4605C16.6623 32.2759 16.8171 32.1187 17 32C18.9069 30.2408 21.4055 29.2628 24 29.26Z" fill="#4C4C4C"/>
</svg>
